<?xml version="1.0" encoding="iso-8859-1"?>
<!-- Generator: Adobe Illustrator 19.0.0, SVG Export Plug-In . SVG Version: 6.00 Build 0)  -->
<svg version="1.1" id="Capa_1" xmlns="http://www.w3.org/2000/svg" xmlns:xlink="http://www.w3.org/1999/xlink" x="0px" y="0px"
	 viewBox="0 0 512 512" style="enable-background:new 0 0 512 512;" xml:space="preserve">
<circle style="fill:#DFE1DF;" cx="256" cy="256" r="245.333"/>
<path style="fill:#303C42;" d="M366.875,245.333c-12.896,0-24.854,6.406-32,17.125L320,284.771V149.333c0-17.646-14.354-32-32-32
	c-3.758,0-7.314,0.77-10.667,1.965v-1.965c0-17.646-14.354-32-32-32c-14.751,0-27.077,10.082-30.766,23.682
	c-3.686-1.486-7.689-2.349-11.901-2.349c-17.646,0-32,14.354-32,32v23.298C167.314,160.77,163.758,160,160,160
	c-17.646,0-32,14.354-32,32v160c0,41.167,33.5,74.667,74.667,74.667h56.417c28.292,0,55.021-12.385,73.792-34.646l70.438-97.792
	c1.313-1.813,2.021-3.99,2.021-6.229v-4.208C405.333,262.583,388.083,245.333,366.875,245.333z"/>
<path style="fill:#DB7955;" d="M316.083,378.906c-14.208,16.792-34.979,26.427-57,26.427h-56.417
	c-29.417,0-53.333-23.927-53.333-53.333V192c0-5.885,4.792-10.667,10.667-10.667s10.667,4.781,10.667,10.667v10.667v42.667
	c0,5.896,4.771,10.667,10.667,10.667c5.896,0,10.667-4.771,10.667-10.667v-42.667V192v-53.333c0-5.885,4.792-10.667,10.667-10.667
	s10.667,4.781,10.667,10.667v74.667v32c0,5.896,4.771,10.667,10.667,10.667c5.896,0,10.667-4.771,10.667-10.667v-32v-74.667v-21.333
	c0-5.885,4.792-10.667,10.667-10.667S256,111.448,256,117.333v32V192v53.333c0,5.896,4.771,10.667,10.667,10.667
	c5.896,0,10.667-4.771,10.667-10.667V192v-42.667c0-5.885,4.792-10.667,10.667-10.667s10.667,4.781,10.667,10.667V320
	c0,4.698,3.083,8.844,7.583,10.208c4.521,1.365,9.333-0.385,11.958-4.292l34.417-51.635c3.188-4.771,8.5-7.615,14.25-7.615
	c9.438,0,17.125,7.688,17.125,17.125L316.083,378.906z"/>
<path style="opacity:0.2;fill:#FFFFFF;enable-background:new    ;" d="M316.083,378.906c-14.208,16.792-34.979,26.427-57,26.427
	h-56.417c-29.417,0-53.333-23.927-53.333-53.333V192c0-5.885,4.792-10.667,10.667-10.667s10.667,4.781,10.667,10.667v10.667v42.667
	c0,5.896,4.771,10.667,10.667,10.667c5.896,0,10.667-4.771,10.667-10.667v-42.667V192v-53.333c0-5.885,4.792-10.667,10.667-10.667
	s10.667,4.781,10.667,10.667v74.667v32c0,5.896,4.771,10.667,10.667,10.667c5.896,0,10.667-4.771,10.667-10.667v-32v-74.667v-21.333
	c0-5.885,4.792-10.667,10.667-10.667S256,111.448,256,117.333v32V192v53.333c0,5.896,4.771,10.667,10.667,10.667
	c5.896,0,10.667-4.771,10.667-10.667V192v-42.667c0-5.885,4.792-10.667,10.667-10.667s10.667,4.781,10.667,10.667V320
	c0,4.698,3.083,8.844,7.583,10.208c4.521,1.365,9.333-0.385,11.958-4.292l34.417-51.635c3.188-4.771,8.5-7.615,14.25-7.615
	c9.438,0,17.125,7.688,17.125,17.125L316.083,378.906z"/>
<path style="fill:#EE3124;" d="M256,0C114.844,0,0,114.844,0,256s114.844,256,256,256s256-114.844,256-256S397.156,0,256,0z
	 M42.667,256c0-51.151,18.125-98.126,48.249-134.918l300.003,300.003c-36.792,30.124-83.767,48.249-134.918,48.249
	C138.365,469.333,42.667,373.635,42.667,256z M421.085,390.918L121.082,90.915C157.874,60.792,204.849,42.667,256,42.667
	c117.635,0,213.333,95.698,213.333,213.333C469.333,307.151,451.208,354.126,421.085,390.918z"/>
<linearGradient id="SVGID_1_" gradientUnits="userSpaceOnUse" x1="-45.5784" y1="639.555" x2="-23.8278" y2="629.4138" gradientTransform="matrix(21.3333 0 0 -21.3333 996.3334 13791.667)">
	<stop  offset="0" style="stop-color:#FFFFFF;stop-opacity:0.2"/>
	<stop  offset="1" style="stop-color:#FFFFFF;stop-opacity:0"/>
</linearGradient>
<path style="fill:url(#SVGID_1_);" d="M256,0C114.844,0,0,114.844,0,256s114.844,256,256,256s256-114.844,256-256S397.156,0,256,0z"
	/>
<g>
</g>
<g>
</g>
<g>
</g>
<g>
</g>
<g>
</g>
<g>
</g>
<g>
</g>
<g>
</g>
<g>
</g>
<g>
</g>
<g>
</g>
<g>
</g>
<g>
</g>
<g>
</g>
<g>
</g>
</svg>
