<svg id="Layer_1" height="512" viewBox="0 0 512 512" width="512" xmlns="http://www.w3.org/2000/svg" data-name="Layer 1"><path d="m256 119.66a250.158 250.158 0 0 1 222.84 136.34 250.28 250.28 0 0 1 -445.68 0 250.158 250.158 0 0 1 222.84-136.34z" fill="#fce581"/><path d="m331.05 256a75.036 75.036 0 1 1 -75.05-75.05 74.979 74.979 0 0 1 75.05 75.05z" fill="#e04a5d"/><path d="m292.93 249.29a38.059 38.059 0 0 1 .6 6.71 37.53 37.53 0 1 1 -37.53-37.53 38.059 38.059 0 0 1 6.71.6 22.288 22.288 0 0 0 -2.4 10.11 22.519 22.519 0 0 0 22.51 22.51 22.288 22.288 0 0 0 10.11-2.4z" fill="#50dd5a"/><path d="m83.16 256a250.294 250.294 0 0 1 197.84-135.1q-12.336-1.224-25-1.243a250.158 250.158 0 0 0 -222.84 136.343 250.158 250.158 0 0 0 222.84 136.34q12.657 0 25-1.243a250.294 250.294 0 0 1 -197.84-135.097z" fill="#f9cd53"/><g fill="#284268"><path d="m11 140.958a6 6 0 0 0 6-6v-117.958h117.958a6 6 0 0 0 0-12h-123.958a6 6 0 0 0 -6 6v123.958a6 6 0 0 0 6 6z"/><path d="m134.958 495h-117.958v-117.958a6 6 0 0 0 -12 0v123.958a6 6 0 0 0 6 6h123.958a6 6 0 0 0 0-12z"/><path d="m501 371.042a6 6 0 0 0 -6 6v117.958h-117.958a6 6 0 1 0 0 12h123.958a6 6 0 0 0 6-6v-123.958a6 6 0 0 0 -6-6z"/><path d="m501 5h-123.958a6 6 0 0 0 0 12h117.958v117.958a6 6 0 0 0 12 0v-123.958a6 6 0 0 0 -6-6z"/><path d="m484.184 258.734a6 6 0 0 0 0-5.468 256.256 256.256 0 0 0 -456.368 0 6 6 0 0 0 0 5.468 256.256 256.256 0 0 0 456.368 0zm-228.184 127.611a244.152 244.152 0 0 1 -216.081-130.345 244.252 244.252 0 0 1 432.162 0 244.152 244.152 0 0 1 -216.081 130.345z"/><path d="m295.593 243.916a6 6 0 0 0 -5.378.022 16.212 16.212 0 0 1 -7.391 1.754 16.535 16.535 0 0 1 -16.516-16.516 16.219 16.219 0 0 1 1.754-7.392 6 6 0 0 0 -4.275-8.612 43.5 43.5 0 1 0 35.041 35.039 6 6 0 0 0 -3.235-4.295zm-39.593 43.61a31.526 31.526 0 0 1 -1.313-63.025 28.549 28.549 0 0 0 32.813 32.811 31.564 31.564 0 0 1 -31.5 30.214z"/><path d="m256 174.948a81.035 81.035 0 1 0 81.052 81.052 80.571 80.571 0 0 0 -81.052-81.052zm30.963 142.745a67.934 67.934 0 0 1 -30.963 7.359 69.129 69.129 0 0 1 -69.052-69.052 69.12 69.12 0 0 1 69.052-69.052 69.035 69.035 0 0 1 30.963 130.745z"/></g></svg>